<?xml version="1.0" encoding="utf-8"?>
<!-- Generator: Adobe Illustrator 25.2.0, SVG Export Plug-In . SVG Version: 6.00 Build 0)  -->
<svg version="1.1" id="Layer_1" xmlns="http://www.w3.org/2000/svg" xmlns:xlink="http://www.w3.org/1999/xlink" x="0px" y="0px"
	 viewBox="0 0 1633 1127.5" style="enable-background:new 0 0 1633 1127.5;" xml:space="preserve">
<style type="text/css">
	.st0{fill:#FFFFFF;}
	.st1{fill-rule:evenodd;clip-rule:evenodd;fill:#1A47B6;}
	.st2{fill-rule:evenodd;clip-rule:evenodd;fill:#9BD6FF;}
	.st3{fill-rule:evenodd;clip-rule:evenodd;fill:#003398;}
	.st4{clip-path:url(#SVGID_2_);fill:url(#SVGID_3_);}
	.st5{fill-rule:evenodd;clip-rule:evenodd;fill:#75B3E2;}
	.st6{fill-rule:evenodd;clip-rule:evenodd;fill:#E4F5FB;}
	.st7{fill-rule:evenodd;clip-rule:evenodd;fill:#E50013;}
	.st8{fill-rule:evenodd;clip-rule:evenodd;fill:#3DABF9;}
	.st9{fill-rule:evenodd;clip-rule:evenodd;fill:#0094FF;}
	.st10{fill-rule:evenodd;clip-rule:evenodd;fill:#102B6E;}
	.st11{fill:#76C5FB;}
	.st12{fill-rule:evenodd;clip-rule:evenodd;fill:#76C5FB;}
	.st13{fill-rule:evenodd;clip-rule:evenodd;fill:#F0F8FD;}
	.st14{fill-rule:evenodd;clip-rule:evenodd;fill:#F29900;}
	.st15{fill-rule:evenodd;clip-rule:evenodd;fill:#F7CCCF;}
	.st16{fill:#9D1F39;}
	.st17{fill-rule:evenodd;clip-rule:evenodd;fill:#092978;}
	.st18{fill-rule:evenodd;clip-rule:evenodd;fill:#DD7577;}
	.st19{fill-rule:evenodd;clip-rule:evenodd;fill:#363653;}
	.st20{fill-rule:evenodd;clip-rule:evenodd;fill:#FFFFFF;}
	.st21{fill-rule:evenodd;clip-rule:evenodd;fill:#94BBE3;}
	.st22{clip-path:url(#SVGID_5_);fill:url(#SVGID_6_);}
	.st23{clip-path:url(#SVGID_8_);fill:url(#SVGID_9_);}
	.st24{fill-rule:evenodd;clip-rule:evenodd;fill:#879FDD;}
	.st25{clip-path:url(#SVGID_11_);fill:url(#SVGID_12_);}
	.st26{fill-rule:evenodd;clip-rule:evenodd;fill:#5DBBEA;}
	.st27{fill-rule:evenodd;clip-rule:evenodd;fill:#0048FF;}
	.st28{fill-rule:evenodd;clip-rule:evenodd;fill:#0071AE;}
	.st29{fill-rule:evenodd;clip-rule:evenodd;fill:#A5DBFD;}
	.st30{fill-rule:evenodd;clip-rule:evenodd;fill:#9D1F39;}
	.st31{fill-rule:evenodd;clip-rule:evenodd;fill:#F18E00;}
	.st32{fill-rule:evenodd;clip-rule:evenodd;fill:#F4B1B1;}
	.st33{fill-rule:evenodd;clip-rule:evenodd;fill:#ED8D8F;}
	.st34{fill-rule:evenodd;clip-rule:evenodd;fill:#15378B;}
	.st35{fill-rule:evenodd;clip-rule:evenodd;fill:#E8F5FC;}
	.st36{fill-rule:evenodd;clip-rule:evenodd;fill:#000446;}
	.st37{fill-rule:evenodd;clip-rule:evenodd;fill:#D3E8F7;}
	.st38{fill-rule:evenodd;clip-rule:evenodd;fill:#E98385;}
	.st39{fill-rule:evenodd;clip-rule:evenodd;fill:#538BC0;}
</style>
<rect class="st0" width="1633" height="1127.5"/>
<path class="st1" d="M1604,1092.3h-9.7h-0.1h-0.1H43.6h-0.1h-0.1h-9.7c-4.7,0-8.5,2.4-8.5,5.4s3.8,5.4,8.5,5.4h12.5h1545.5h12.5
	c4.7,0,8.5-2.4,8.5-5.4C1612.5,1094.7,1608.7,1092.3,1604,1092.3"/>
<g>
	<path class="st2" d="M290.5,793.8H160.3c-75.5,0-137.1,66.9-137.1,148.6s61.7,148.6,137.1,148.6h1227.4
		c122.1,0,222-108.2,222-240.7s-100-240.7-222-240.7c-51.7,0-98.4-45.8-98.4-101.7s42.2-101.7,93.9-101.7h53.1
		c53.7,0,97.6-47.6,97.6-105.8s-43.9-105.8-97.6-105.8H1285c-20.9,0-38-18.6-38-41.2s17.1-41.2,38-41.2h25.2
		c14.4,0,26.2-12.8,26.2-28.4l0,0c0-15.7-11.8-28.4-26.2-28.4h-94.3c0,0-27.6,0-62.5,0s-38.7,44.6-126.6,44.6c-136,0-29.4,0-165.4,0
		c-18.8,0-34.2,16.8-34.2,37.1l0,0c0,20.4,15.5,37.1,34.2,37.1h9.3c27.3,0,49.6,24.2,49.6,53.8s-22.3,53.8-49.6,53.8h-49.4
		c-133.6,0-152.4,37.8-175.8,113.1S448.1,476,448.1,476h17.5c-41.1,0-74.7,36.4-74.7,81c0,44.6,33.6,81,74.7,81h8.6
		c39.5,0-111.7,35.1-111.7,77.9C362.5,758.8,330.1,793.8,290.5,793.8z M1383.9,112.2c-14.4,0-26.2-12.8-26.2-28.4
		s11.7-28.4,26.2-28.4s26.2,12.8,26.2,28.4S1398.3,112.2,1383.9,112.2z"/>
	<path class="st3" d="M412.6,317.6h866.2c31,0,56.4,25.4,56.4,56.4v504.9H356.1V374C356.1,343,381.5,317.6,412.6,317.6"/>
	<g>
		<g>
			<defs>
				<path id="SVGID_1_" d="M397.1,359.2h897c0.5,0,0.9,0.5,0.9,0.9V930c0,0.5-0.5,0.9-0.9,0.9h-897c-0.5,0-0.9-0.5-0.9-0.9V360.1
					C396.2,359.6,396.7,359.2,397.1,359.2"/>
			</defs>
			<clipPath id="SVGID_2_">
				<use xlink:href="#SVGID_1_"  style="overflow:visible;"/>
			</clipPath>
			
				<linearGradient id="SVGID_3_" gradientUnits="userSpaceOnUse" x1="845.6644" y1="16.6972" x2="845.6644" y2="695.4148" gradientTransform="matrix(1 0 0 -1 0 1125.8898)">
				<stop  offset="0" style="stop-color:#3D9DFF"/>
				<stop  offset="1" style="stop-color:#E3F2FB"/>
			</linearGradient>
			<rect x="396.2" y="359.2" class="st4" width="898.9" height="571.8"/>
		</g>
	</g>
	<path class="st5" d="M769,963.4c-3.9,71.9-14.4,90-87.4,131.1h161.6h161.6c-72.9-41-83.5-59.1-87.4-131.1l-74.2-5.9L769,963.4z"/>
	<path class="st6" d="M1335.3,879v37.1c0,31-25.4,56.4-56.4,56.4H412.6c-31,0-56.4-25.4-56.4-56.4V879H1335.3z"/>
	<rect x="356.1" y="842.4" class="st3" width="979.2" height="59.3"/>
	<path class="st7" d="M803.9,917.1c5.5,0,10,4.5,10,10s-4.5,10-10,10s-10-4.5-10-10C793.8,921.6,798.3,917.1,803.9,917.1"/>
	<path class="st8" d="M841.1,917.1c5.5,0,10,4.5,10,10s-4.5,10-10,10c-5.5,0-10-4.5-10-10C831.1,921.6,835.6,917.1,841.1,917.1"/>
	<path class="st8" d="M878.3,917.1c5.5,0,10,4.5,10,10s-4.5,10-10,10c-5.5,0-10-4.5-10-10C868.3,921.6,872.8,917.1,878.3,917.1"/>
	<rect x="446.7" y="417.4" class="st1" width="257.7" height="398.3"/>
	<path class="st9" d="M465.6,739.1h163.7c3.7,0,6.7,3,6.7,6.7l0,0c0,3.6-3,6.7-6.7,6.7H465.6c-3.6,0-6.7-3-6.7-6.7l0,0
		C459,742,462,739.1,465.6,739.1"/>
	<path class="st9" d="M465.6,437.6h60.9c3.6,0,6.7,3,6.7,6.7l0,0c0,3.6-3,6.7-6.7,6.7h-60.9c-3.6,0-6.7-3-6.7-6.7l0,0
		C459,440.6,462,437.6,465.6,437.6"/>
	<path class="st9" d="M465.6,475.2h203.5c3.6,0,6.7,3,6.7,6.7l0,0c0,3.6-3,6.7-6.7,6.7H465.6c-3.6,0-6.7-3-6.7-6.7l0,0
		C459,478.2,462,475.2,465.6,475.2"/>
	<path class="st9" d="M465.6,511.2h203.5c3.6,0,6.7,3,6.7,6.7l0,0c0,3.6-3,6.7-6.7,6.7H465.6c-3.6,0-6.7-3-6.7-6.7l0,0
		C459,514.2,462,511.2,465.6,511.2"/>
	<path class="st9" d="M465.6,547.2H521c3.6,0,6.7,3,6.7,6.7l0,0c0,3.6-3,6.7-6.7,6.7h-55.4c-3.6,0-6.7-3-6.7-6.7l0,0
		C459,550.1,462,547.2,465.6,547.2"/>
	<path class="st9" d="M544.4,547.2h55.4c3.6,0,6.7,3,6.7,6.7l0,0c0,3.6-3,6.7-6.7,6.7h-55.4c-3.6,0-6.7-3-6.7-6.7l0,0
		C537.7,550.1,540.7,547.2,544.4,547.2"/>
	<path class="st9" d="M465.6,590.6h74.6c3.6,0,6.7,3,6.7,6.7l0,0c0,3.6-3,6.7-6.7,6.7h-74.6c-3.6,0-6.7-3-6.7-6.7l0,0
		C459,593.7,462,590.6,465.6,590.6"/>
	<path class="st9" d="M566.3,590.6h74.6c3.6,0,6.7,3,6.7,6.7l0,0c0,3.6-3,6.7-6.7,6.7h-74.6c-3.6,0-6.7-3-6.7-6.7l0,0
		C559.6,593.7,562.5,590.6,566.3,590.6"/>
	<path class="st9" d="M465.6,623.2h90.1c3.6,0,6.7,3,6.7,6.7l0,0c0,3.6-3,6.7-6.7,6.7h-90.1c-3.6,0-6.7-3-6.7-6.7l0,0
		C459,626.1,462,623.2,465.6,623.2"/>
	<path class="st9" d="M584.1,623.2h90.1c3.6,0,6.7,3,6.7,6.7l0,0c0,3.6-3,6.7-6.7,6.7h-90.1c-3.6,0-6.7-3-6.7-6.7l0,0
		C577.4,626.1,580.4,623.2,584.1,623.2"/>
	<path class="st9" d="M465.6,660.1h60.9c3.6,0,6.7,3,6.7,6.7l0,0c0,3.6-3,6.7-6.7,6.7h-60.9c-3.6,0-6.7-3-6.7-6.7l0,0
		C459,663,462,660.1,465.6,660.1"/>
	<path class="st9" d="M465.6,702.6h90.1c3.6,0,6.7,3,6.7,6.7l0,0c0,3.6-3,6.7-6.7,6.7h-90.1c-3.6,0-6.7-3-6.7-6.7l0,0
		C459,705.7,462,702.6,465.6,702.6"/>
	<path class="st9" d="M584.1,702.6h90.1c3.6,0,6.7,3,6.7,6.7l0,0c0,3.6-3,6.7-6.7,6.7h-90.1c-3.6,0-6.7-3-6.7-6.7l0,0
		C577.4,705.7,580.4,702.6,584.1,702.6"/>
	<path class="st10" d="M1097.1,972.5v77.6c0,11.3,4.6,21.4,12,28.9c7.4,7.4,17.6,12,28.9,12h38.7v-9.6h-38.7
		c-8.6,0-16.4-3.5-22.1-9.1c-5.6-5.6-9.1-13.5-9.1-22.1v-77.6H1097.1z"/>
	<path class="st10" d="M1141.7,972.5v77.6c0,11.3,4.6,21.4,12,28.9c7.4,7.4,17.6,12,28.9,12H1294v-9.6h-111.5
		c-8.6,0-16.4-3.5-22.1-9.1c-5.6-5.6-9.1-13.5-9.1-22.1v-77.6H1141.7z"/>
	<rect x="1091.8" y="972.5" class="st10" width="20.1" height="26.7"/>
	<rect x="1136.6" y="972.5" class="st10" width="20.1" height="26.7"/>
	<path class="st11" d="M1221.4,386.7H517.7c-1.8,0-3.4,0.7-4.5,1.9c-1.1,1.1-1.9,2.7-1.9,4.5s0.7,3.4,1.9,4.5
		c1.1,1.1,2.7,1.9,4.5,1.9h703.7c1.8,0,3.4-0.7,4.5-1.9c1.1-1.1,1.9-2.8,1.9-4.5c0-1.8-0.7-3.4-1.9-4.5
		C1224.8,387.4,1223.2,386.7,1221.4,386.7 M517.7,384.4h703.7c2.4,0,4.6,1,6.2,2.6c1.6,1.6,2.6,3.8,2.6,6.2s-1,4.6-2.6,6.2
		c-1.6,1.6-3.8,2.6-6.2,2.6H517.7c-2.4,0-4.6-1-6.2-2.6s-2.6-3.8-2.6-6.2s1-4.6,2.6-6.2S515.4,384.4,517.7,384.4z"/>
	<rect x="479.5" y="383.7" class="st12" width="17.7" height="18.8"/>
	<rect x="448.2" y="383.7" class="st12" width="17.7" height="18.8"/>
	<rect x="735.4" y="422.6" class="st13" width="534.3" height="73.4"/>
	<rect x="960.8" y="524.9" class="st13" width="305.9" height="73.4"/>
	<rect x="960.8" y="620.7" class="st13" width="305.9" height="73.4"/>
	<path class="st13" d="M739.1,724.1h523.3c3.7,0,6.7,3,6.7,6.7l0,0c0,3.6-3,6.7-6.7,6.7H739.1c-3.6,0-6.7-3-6.7-6.7l0,0
		C732.4,727.1,735.4,724.1,739.1,724.1"/>
	<path class="st13" d="M739.1,760.1h523.3c3.7,0,6.7,3,6.7,6.7l0,0c0,3.6-3,6.7-6.7,6.7H739.1c-3.6,0-6.7-3-6.7-6.7l0,0
		C732.4,763.1,735.4,760.1,739.1,760.1"/>
	<path class="st14" d="M716.3,157.9h57.3c7.1,0,24.7,13.5,27.9,31.1l0,0c5.9,28.4,3.3,90.9-16.9,113.2l-22.8-0.3l-69.8-17.4v-60.5
		v-57.5C698.5,161.2,707.1,157.9,716.3,157.9"/>
	<path class="st14" d="M773.6,158.1c28.3,2.8,30.9,38.4,30.6,60.5h-30.6V158.1z"/>
	<path class="st15" d="M776.3,218.7l27.8-0.2c-10.9,30-31.9,55.5-59.7,55.5h-40.5c0,0,8.6-11.1,20-12c11.3-0.9,11.7,0.7,11.7,0.7
		C745.2,257.8,767.1,241,776.3,218.7"/>
	<path class="st16" d="M812.1,446.2l2.8,20l7.1,6.5c0,0,5.5-0.2,6.2,1.7c0.7,1.9,0,6.1,0,6.1h-5.6h-30.8c-2-8.7-3.6-17.8-4.2-33.1
		L812.1,446.2z"/>
	<path class="st17" d="M646.3,274.1h121.1c1.4,0,2.7,0.1,4.1,0.3l0,0c33.8-0.2,38,21.7,40.4,45.6l13.7,137h-45.9l-15.1-139.4H646.3
		c-12,0-21.8-9.8-21.8-21.8S634.3,274.1,646.3,274.1"/>
	<path class="st16" d="M679.3,399.4l16.6,37.2c0,0-1.1,6.8-3.8,10.6c-2.8,3.8-3,6.7-1.4,8.9s2.3,2.9,2.3,2.9l28.2-29.4L706.4,395
		L679.3,399.4z"/>
	<path class="st17" d="M657.9,280.5c4.5,2,8.8,5.9,12,10.7c9.9,15.1,55.2,117,55.2,117h-52l-37.8-83c-1.6-3.5-9.4-17.8-10.2-24.4
		C622.8,279.7,640.3,272.3,657.9,280.5"/>
	<path class="st15" d="M710.2,129.3c-6,10.7,4.3,25.6,16.9,24.5v3.4l-6.9,9.8l6.8,10.2l7.1,2.6l17.1-4.4v-30.8
		c0.7-0.2,0.7,0.9,1.9,0.1c1.2-0.8,4.1-6.5,3.6-9.5c-0.6-2.9-4.3-4.6-4.3-4.6l0,0c3.6-8.8,6.3-10.2-2.8-15
		c-9.1-4.9-27.6-4.5-27.6-4.5l-8.3,2.8C713.3,121.9,714.4,121.8,710.2,129.3"/>
	<path class="st18" d="M725.3,153.8c0.6,0,1.2,0,1.8,0c5.5-0.1,10.3-1.2,15.3-3.2c0,0-1.8,6-8.3,9c-6.1,2.8-10.3,2.9-10.7,2.9
		l3.7-5.3v-3.4L725.3,153.8z"/>
	<path class="st19" d="M715.8,116.5c7.1,1.1,12.7,0.1,17.1,0.7c2.6,0.3,4.6,1.7,6.2,2.9c4.1,3.3,7.2,11.4,8.1,16.7c0,0,4.7-2,6.3-1
		c1.6,1,0.6,3.4,0.3,4.3c-0.2,1-2.4,2-3.2,2.6c-2.1,1.8,2.8,2.6,8.7-2.1c18.7-14.9,13-38.8-13.4-47.8c-10.7-3.6-3.2-9.5-10.6-10.9
		C701.8,74.7,694.8,112.4,715.8,116.5"/>
	<path class="st14" d="M692.5,166.2c-15.6,13.9-24.6,33.1-30.1,53.1c10.2-0.7,20.9-0.6,30.9-0.9L692.5,166.2z"/>
	<path class="st20" d="M734.5,196.9c1,0,1.9,0.8,1.9,1.9c0,1-0.8,1.9-1.9,1.9c-1,0-1.9-0.8-1.9-1.9
		C732.6,197.8,733.4,196.9,734.5,196.9 M734.5,186c1,0,1.9,0.8,1.9,1.9c0,1-0.8,1.9-1.9,1.9c-1,0-1.9-0.8-1.9-1.9
		C732.6,186.9,733.4,186,734.5,186z M727.1,157.1c-6.5,11.1,0.6,19,7,22.6c9-5.9,17.1-11.5,17.1-22.6c0,0,3.2-0.1,5.1,4.9
		c3.3,8-2.3,25.9-2.3,25.9s-6.2-8.1-11.5-8.6c-5.2-0.5-8.6,1.1-8.6,1.1c-6.7-4.9-11.2,1.5-15.7,6.1c-1.4-11.8-1.2-20.3,7.7-29.4
		C726,157.1,727.1,157.1,727.1,157.1z"/>
	<path class="st20" d="M720.5,204.4h-87.5c-3.4,0-6.9,2.8-6.1,6.1l13.1,57.9c0.8,3.3,2.8,6.1,6.1,6.1h87.5c3.4,0,6.9-2.8,6.1-6.1
		l-13.1-57.9C725.9,207.4,723.9,204.4,720.5,204.4"/>
	<path class="st21" d="M716.7,204.4h-87.5c-3.4,0-6.9,2.8-6.1,6.1l13.1,57.9c0.8,3.3,2.7,6.1,6.1,6.1h87.5c3.4,0,6.9-2.8,6.1-6.1
		l-13.1-57.9C722.1,207.4,720,204.4,716.7,204.4"/>
	<path class="st20" d="M677.5,233.8c-2.6,0.9-3.9,4.1-2.9,7.3c1,3.2,3.9,5.1,6.7,4.2c2.6-0.9,3.9-4.2,2.9-7.3
		C683.1,234.8,680.2,233,677.5,233.8"/>
	<path class="st20" d="M781.3,269h-44.5v5.8h47.4v-2.8C784.2,270.2,782.9,269,781.3,269"/>
	<g>
		<g>
			<defs>
				<path id="SVGID_4_" d="M494.6,547.2H268.4c-20.8,0-37.7,16.9-37.7,37.7v468.2c0,20.8,16.9,37.7,37.7,37.7h226.2
					c20.8,0,37.7-16.9,37.7-37.7V584.9C532.3,564.1,515.4,547.2,494.6,547.2"/>
			</defs>
			<clipPath id="SVGID_5_">
				<use xlink:href="#SVGID_4_"  style="overflow:visible;"/>
			</clipPath>
			
				<linearGradient id="SVGID_6_" gradientUnits="userSpaceOnUse" x1="381.572" y1="542.8618" x2="381.572" y2="58.5436" gradientTransform="matrix(1 0 0 -1 0 1125.8898)">
				<stop  offset="0" style="stop-color:#0048FF"/>
				<stop  offset="0.1305" style="stop-color:#0242E7"/>
				<stop  offset="0.4122" style="stop-color:#0537B7"/>
				<stop  offset="0.6611" style="stop-color:#073095"/>
				<stop  offset="0.8656" style="stop-color:#082B80"/>
				<stop  offset="1" style="stop-color:#092978"/>
			</linearGradient>
			<rect x="230.7" y="547.2" class="st22" width="301.7" height="543.7"/>
		</g>
	</g>
	<g>
		<g>
			<defs>
				<path id="SVGID_7_" d="M494.6,578.9c10.8,0,19.7,8.9,19.7,19.7v386.6c0,10.8-8.9,19.7-19.7,19.7H268.4
					c-10.8,0-19.7-8.9-19.7-19.7V598.6c0-10.8,8.9-19.7,19.7-19.7H494.6z"/>
			</defs>
			<clipPath id="SVGID_8_">
				<use xlink:href="#SVGID_7_"  style="overflow:visible;"/>
			</clipPath>
			
				<linearGradient id="SVGID_9_" gradientUnits="userSpaceOnUse" x1="381.5156" y1="-82.6309" x2="381.5156" y2="478.2502" gradientTransform="matrix(1 0 0 -1 0 1125.8898)">
				<stop  offset="0" style="stop-color:#1E9DF8"/>
				<stop  offset="0.1213" style="stop-color:#41ACF9"/>
				<stop  offset="0.3514" style="stop-color:#7DC7FB"/>
				<stop  offset="0.5625" style="stop-color:#ADDBFD"/>
				<stop  offset="0.7477" style="stop-color:#CFEAFE"/>
				<stop  offset="0.8999" style="stop-color:#E4F4FF"/>
				<stop  offset="1" style="stop-color:#ECF7FF"/>
			</linearGradient>
			<rect x="248.7" y="578.9" class="st23" width="265.7" height="426.1"/>
		</g>
	</g>
	<path class="st20" d="M398.6,566.4c1.4,0,2.4-1,2.4-2.4c0-1.4-1-2.4-2.4-2.4h-44c-1.4,0-2.4,1-2.4,2.4c0,1.4,1,2.4,2.4,2.4H398.6z
		 M406.5,561.6c-1.4,0-2.4,1-2.4,2.4s1,2.4,2.4,2.4h2c1.4,0,2.4-1,2.4-2.4s-1-2.4-2.4-2.4H406.5z"/>
	<path class="st24" d="M368.5,1036.1H398c7.7,0,14,6.3,14,14l0,0c0,7.7-6.3,14-14,14h-29.6c-7.7,0-14-6.3-14-14l0,0
		C354.5,1042.5,360.8,1036.1,368.5,1036.1"/>
	<g>
		<g>
			<defs>
				<rect id="SVGID_10_" x="243.7" y="564" width="274.5" height="46.8"/>
			</defs>
			<clipPath id="SVGID_11_">
				<use xlink:href="#SVGID_10_"  style="overflow:visible;"/>
			</clipPath>
			
				<linearGradient id="SVGID_12_" gradientUnits="userSpaceOnUse" x1="380.9515" y1="542.8636" x2="380.9515" y2="58.5471" gradientTransform="matrix(1 0 0 -1 0 1125.8898)">
				<stop  offset="0" style="stop-color:#0048FF"/>
				<stop  offset="0.1305" style="stop-color:#0242E7"/>
				<stop  offset="0.4122" style="stop-color:#0537B7"/>
				<stop  offset="0.6611" style="stop-color:#073095"/>
				<stop  offset="0.8656" style="stop-color:#082B80"/>
				<stop  offset="1" style="stop-color:#092978"/>
			</linearGradient>
			<rect x="243.7" y="564" class="st25" width="274.5" height="46.8"/>
		</g>
	</g>
	<path class="st26" d="M494.6,578.9c10.8,0,19.7,8.9,19.7,19.7v12.2H248.7v-12.2c0-10.8,8.9-19.7,19.7-19.7H494.6z"/>
	<path class="st20" d="M352.1,564H401c0,1.4-1,2.4-2.4,2.4h-44C353.3,566.4,352.1,565.3,352.1,564 M404.1,564c0,1.4,1,2.4,2.4,2.4h2
		c1.4,0,2.4-1,2.4-2.4H404.1z"/>
	<path class="st27" d="M1412.4,842.4h57.4c6.5,0,12,5.4,12,12v195.1c0,22.7-18.6,41.3-41.3,41.3s-41.3-18.6-41.3-41.3V855.5
		C1399.3,848.3,1405.2,842.4,1412.4,842.4"/>
	<rect x="1412.4" y="823.7" class="st17" width="57.4" height="18.7"/>
	<path class="st17" d="M1413.7,823.7h54.9c5.2,0,9.4-4.2,9.4-9.4s-4.2-9.4-9.4-9.4h-54.9c-5.2,0-9.4,4.2-9.4,9.4
		C1404.3,819.4,1408.6,823.7,1413.7,823.7"/>
	<rect x="1425.6" y="567.9" class="st27" width="31" height="237"/>
	<path class="st17" d="M1425.6,619.4h31v-56.1c0,0-11.7-10.2-10.2-10.2h-8.5c0,0-12.4,10.5-12.4,10.7V619.4z"/>
	<rect x="1438" y="553.2" class="st28" width="6.9" height="66.2"/>
	<path class="st17" d="M1481.9,1025.2h-82.6v24.3c0,22.7,18.6,41.3,41.3,41.3s41.3-18.6,41.3-41.3V1025.2z"/>
	<rect x="628.2" y="1006.1" class="st29" width="41.4" height="41.4"/>
	<path class="st30" d="M608.5,1099.2l33.2,9.9c0,0,3.7,4.4,4.6,8.3c0.9,3.9,2.6,5.6,5.1,5.8c4.5,0.3,6.4-28.8,7.1-33.4l-37.8-10.6
		L608.5,1099.2z"/>
	<path class="st31" d="M591.1,924.5h-55.7c-7,0-24,13.2-27.1,30.3l0,0c-5.6,27.6-3.2,88.5,16.5,110.1l22.2-0.3l67.9-16.8V989v-56
		C608.5,927.7,600.1,924.5,591.1,924.5"/>
	<path class="st31" d="M535.3,924.7c-27.5,2.7-30.1,37.2-29.7,58.9h29.7V924.7z"/>
	<path class="st32" d="M532.8,983.7l-27.1-0.2c0,0,0,10.3,11.2,18.6c11.2,8.3,46.9,35.3,46.9,35.3h39.4c0,0-8.3-10.7-19.4-11.6
		s-11.5,0.7-11.5,0.7C570.2,1020.9,544.8,995.6,532.8,983.7"/>
	<path class="st17" d="M659.3,1037.5H541.6c-1.4,0-2.6,0.1-3.9,0.3l0,0c-31.7,0-32.4,19.6-34.7,42h41.5h28.8h86.1
		c11.6,0,21.1-9.5,21.1-21.1C680.4,1047.1,671,1037.5,659.3,1037.5"/>
	<path class="st17" d="M664.5,1039.6c-4.7-1.1-9.9-2.7-15.6-2c-17.5,2.3-121.3,33.6-121.3,33.6l18.3,21.2
		c21.4-1.4,107.2,6.2,123.5-5C686.6,1075.9,690.5,1045.5,664.5,1039.6"/>
	<path class="st32" d="M597.1,896.6c5.9,10.4-4.2,24.9-16.5,23.8v3.3l6.8,9.6l-6.7,9.8l-6.9,2.5l-16.6-4.3v-30
		c-0.6-0.2-0.7,0.9-1.9,0.1c-1.2-0.8-3.9-6.3-3.5-9.3c0.5-2.8,4.2-4.5,4.2-4.5l0,0c-3.5-8.5-6.2-9.8,2.7-14.6
		c8.9-4.7,26.9-4.4,26.9-4.4l8.1,2.7C594.1,889.6,593,889.4,597.1,896.6"/>
	<path class="st33" d="M582.3,920.5c-0.6,0-1.2,0-1.8,0c-5.3-0.1-9.9-1.1-14.9-3c0,0,1.8,5.8,8.1,8.7c6,2.7,9.9,2.8,10.4,2.8
		l-3.6-5.2v-3.3H582.3z"/>
	<path class="st34" d="M604.8,861.4c2.1,11.2-2.3,21.1-13.2,22.9c-6.9,1.1-12.4,0.1-16.6,0.7c-2.5,0.3-4.5,1.6-6.1,2.9
		c-3.9,3.2-7,11.1-7.9,16.2c0,0-4.6-1.9-6.1-1c-1.5,0.9-0.6,3.3-0.3,4.2c0.2,0.9,2.4,2,3,2.6c2,1.8-3.3,5.1-8.9,0.5
		c-4.1-3.3-14.1-12.9-13.4-27.1s6.4-17.5,8.6-18.7c1.5-0.8,12.7-4.3,21.3-7.2c10.4-3.5,11.3-6.3,17.9-9.4
		C591.8,844,603.2,852.6,604.8,861.4"/>
	<path class="st31" d="M614.3,932.6c15.1,13.5,23.9,32.2,29.3,51.7c-9.9-0.7-20.3-0.6-30.1-0.9L614.3,932.6z"/>
	<path class="st20" d="M573.5,962.5c-1,0-1.8,0.8-1.8,1.8s0.8,1.8,1.8,1.8c1,0,1.8-0.8,1.8-1.8C575.3,963.3,574.5,962.5,573.5,962.5
		 M573.5,951.9c-1,0-1.8,0.8-1.8,1.8c0,1,0.8,1.8,1.8,1.8c1,0,1.8-0.8,1.8-1.8C575.3,952.7,574.5,951.9,573.5,951.9z M580.6,923.8
		c6.3,10.8-0.6,18.5-6.8,21.9c-8.8-5.6-16.6-11.3-16.6-21.9c0,0-3-0.1-5,4.7c-3.3,7.8,2.1,25.2,2.1,25.2s6.1-7.9,11.2-8.3
		c5.1-0.5,8.3,1.1,8.3,1.1c6.4-4.7,10.8,1.4,15.2,5.9c1.4-11.5,1.2-19.7-7.4-28.7h-1.1V923.8z"/>
	<path class="st35" d="M587,969.8h85.2c3.3,0,6.7,2.8,6,6l-12.7,56.3c-0.7,3.2-2.7,6-6,6h-85.2c-3.3,0-6.7-2.8-6-6l12.7-56.3
		C581.7,972.5,583.7,969.8,587,969.8"/>
	<path class="st21" d="M590.9,969.8H676c3.3,0,6.7,2.8,6,6l-12.7,56.3c-0.7,3.2-2.7,6-6,6h-85.2c-3.3,0-6.7-2.8-6-6l12.7-56.3
		C585.6,972.5,587.6,969.8,590.9,969.8"/>
	<path class="st20" d="M628.9,998.3c2.6,0.8,3.8,4.1,2.8,7.1s-3.8,5-6.4,4.1c-2.6-0.8-3.8-3.9-2.8-7.1
		C623.5,999.4,626.3,997.4,628.9,998.3"/>
	<path class="st35" d="M527.9,1032.4h43.3v5.5h-46v-2.8C525.1,1033.7,526.3,1032.4,527.9,1032.4"/>
	<path class="st17" d="M527.2,1038.7c17.6,0.8,108.2,35.2,108.2,35.2l-9.6,32.6c-13.3-1.6-108.1-14.2-115.3-18.3
		C480.2,1070.9,501.7,1036.5,527.2,1038.7"/>
	<path class="st9" d="M305.4,632.5c17.4,0,31.5,14.1,31.5,31.5s-14.1,31.5-31.5,31.5s-31.5-14.1-31.5-31.5S288,632.5,305.4,632.5"/>
	<path class="st31" d="M305.4,726.1c17.4,0,31.5,14.1,31.5,31.5s-14.1,31.5-31.5,31.5s-31.5-14.1-31.5-31.5S288,726.1,305.4,726.1"
		/>
	<rect x="349.3" y="658.8" class="st26" width="137.6" height="6.1"/>
	<rect x="349.3" y="674.3" class="st26" width="137.6" height="6.1"/>
	<rect x="349.3" y="642.5" class="st26" width="52.6" height="6.1"/>
	<rect x="349.3" y="751.9" class="st26" width="137.6" height="6.1"/>
	<rect x="349.3" y="767.5" class="st26" width="137.6" height="6.1"/>
	<rect x="349.3" y="735.7" class="st26" width="52.6" height="6.1"/>
	<path class="st9" d="M305.4,815.4c17.4,0,31.5,14.1,31.5,31.5s-14.1,31.5-31.5,31.5s-31.5-14.1-31.5-31.5S288,815.4,305.4,815.4"/>
	<rect x="349.3" y="841.2" class="st26" width="137.6" height="6.1"/>
	<rect x="349.3" y="856.8" class="st26" width="137.6" height="6.1"/>
	<rect x="349.3" y="824.9" class="st26" width="52.6" height="6.1"/>
	<path class="st9" d="M305.4,905.4c17.4,0,31.5,14.1,31.5,31.5s-14.1,31.5-31.5,31.5s-31.5-14.1-31.5-31.5S288,905.4,305.4,905.4"/>
	<rect x="349.3" y="931.2" class="st26" width="137.6" height="6.1"/>
	<rect x="349.3" y="946.8" class="st26" width="137.6" height="6.1"/>
	<rect x="349.3" y="915" class="st26" width="52.6" height="6.1"/>
	<path class="st30" d="M945.9,1091.5h54.5c2.6,0,4.6-1.9,5-4.4c0-0.3,0.1-0.7,0-1l-2.3-28.7c0,0-2.3-1-5.4-1.8
		c-1.9-0.5-3.5-1.8-4.1-3.7c0-0.1-0.1-0.2-0.1-0.5c-1.2-5.5-9.3-7.2-10.7-1.9c-0.2,0.7-0.3,1.4-0.5,2c0,0.1-0.1,0.3-0.1,0.5
		c-0.2,1.1-0.5,2.3-0.6,3.2v0.1c-0.3,2.4-0.2,3.9-0.2,3.9c-0.7,0.9-1.5,1.8-2.1,2.7c-0.3,0.5-0.7,0.9-1,1.4
		c-0.7,0.9-1.5,1.8-2.1,2.7c-0.3,0.5-0.7,0.8-0.9,1.2c-0.8,0.9-1.5,1.8-2.3,2.7c-0.3,0.3-0.7,0.8-1,1.1c-2.8,2.9-5.6,5-9,5.4
		c-5.9,0.8-15.6,1.5-20.2,10.2c-0.1,0.2-0.2,0.3-0.2,0.6C942.1,1089.3,943.7,1091.5,945.9,1091.5"/>
	<path class="st36" d="M1097,863.8v33.5c0,37.2-6.5,118.9-8.9,164l-24.9-0.5L1042.6,898l-35,5l-1.7-44.5l0,0
		c-0.5-153.7,78.3-117.9,71.4-30.8C1076.6,837.5,1100.7,853.3,1097,863.8"/>
	<path class="st36" d="M1003.1,866.3l59.3,12.7l-42.8,97.1l-16,82.7l-26.3,0.7c0.7-40.1,3.8-80.4,5.8-103.5
		C984,944.1,996.1,901.2,1003.1,866.3"/>
	<path class="st30" d="M1054.3,1086.5c0.5,8,28.7,5.2,33.2,2.8c1.7-0.9,2.5-2.7,2.6-4.9c0.2-3.4-1-7.8-2.1-11.3
		c-1.8-5.6-1.6-5.5-2.8-9.4c0,0,0.3-6.2-8.9-8.6c-9.3-2.4-12.6,13.1-14.2,16.1c-1.5,2.7-7.1,6.4-7.7,13.2
		C1054.3,1085.2,1054.3,1085.8,1054.3,1086.5"/>
	<path class="st20" d="M1030.2,748.4c-8.6,18.8-14.1,24.8-38.7,28.4c-19.9,2.9-57.8-41.7-60.6-47.8c-2.8-6.1,8-22,11.5-20.2
		c3.5,1.8,44.3,33.1,47,32.8c2.8-0.2,12.4-4.6,34.3-18.7C1025.8,721.5,1036.2,739.3,1030.2,748.4"/>
	<path class="st31" d="M1109.6,731.2c8.1,12.2-16.5,83.1-9.6,145c-38.1,6.5-78.3,1.8-101.1-5.4c0-46.8,4.4-102.6,14-137.5
		c2.3-5.6,6.8-9.7,17.9-12.9C1058.1,712.7,1098.4,714.5,1109.6,731.2"/>
	<path class="st37" d="M978.5,640.6h259.2c2.1,0,3.9,1.8,3.9,3.9l0,0c0,2.1-1.8,3.9-3.9,3.9H978.5c-2.1,0-3.9-1.8-3.9-3.9l0,0
		C974.7,642.3,976.4,640.6,978.5,640.6"/>
	<path class="st37" d="M978.5,664.5h259.2c2.1,0,3.9,1.8,3.9,3.9l0,0c0,2.1-1.8,3.9-3.9,3.9H978.5c-2.1,0-3.9-1.8-3.9-3.9l0,0
		C974.7,666.3,976.4,664.5,978.5,664.5"/>
	<path class="st15" d="M1039.2,697.6c2.7,5.3,7.6,10.2,11.7,12.2l-0.1,7.8l-1.1,0.9c-4.4,4.7-0.1,16,4.5,19.9
		c7.4-0.9,23.5-15.6,19.6-21.2l-1.7-1.8l-0.3-10.9c0.7,0,5.4-2.7,6.9-3.2c1.5-0.5,3.5-3.2,3.6-6.1c0.1-2.9-4.3-1.9-4.3-1.9
		c5.4-7.4,11.6-13.5,3.6-20.2c-8-6.7-26.3-10.6-26.3-10.6l-11.1-3.8c1.4,3.8-1.5,14.7-4.4,22.6
		C1037.4,688.2,1035.6,690.5,1039.2,697.6"/>
	<path class="st38" d="M1066.6,705.8c0,0-6.2,10.7-11.4,11.6c-5.1,1-2.5,0.2-4.4,0l0.1-7.8C1054.4,710.3,1057.9,710.1,1066.6,705.8"
		/>
	<path class="st20" d="M1084,737.1c0.5-10.5,9-15,17.4-13.7c21,5.4,21.8,68.9,16.2,85.6c-3.8,11.3-64,24.6-71.5,22.2
		c-3.2-1-8.6-4.3-10.2-7.9c-0.9-2.1-1.9-5.5,2.7-7.6c12.3-5.4,48.7-17.7,49.4-21C1093.9,766.8,1083.2,753.6,1084,737.1"/>
	<path class="st20" d="M941.4,711c0.9,5.8-4.5,15.1-8.6,16.7c-0.5-0.8-3.2-4.3-5-7c-3.8-5.9,5.3-17.9,8-15.2L941.4,711z"/>
	<path class="st32" d="M930.2,702.3c-0.6-2.6-2.9-13.1-5-14.9c-1-0.9-1.2-0.5-1.7,0.1c-0.3,0.5-0.7,1.8-0.6,2.8
		c0.2,1.9,0.3,3.7,0.7,4.7c-5.9-3-11.6-10.4-15.9-15.3c-1.8-2-4.5-1.8-2.8,1.8c1.4,2.9,6.9,9.6,6.9,9.6l-7.4-4.9
		c-2-1.1-2,1.5-1.1,2.5c1.6,1.8,6.7,6.4,6.7,6.4l-5.4-2c-2-0.8-1,1.8-0.5,2.3c1.2,1,5.8,3.9,5.8,3.9l-2.5-0.8
		c-2.8-0.9-0.8,2.7,0.1,2.9c0.2,0,9.9,6.2,11.6,7.2c4.3,2.6,6.2,6.8,9.3,10.3c1.6-1.2,5.8-6,6.3-11.8L930.2,702.3z"/>
	<path class="st36" d="M1038.4,651.1c-3.3,10.2-0.3,18.5,9.7,21.4c7.6,2.1,17.7,1.6,23.1,7.9c2.6,3.2,2.4,7.6-0.6,14.6
		c-0.9,2-2,3.5,1.4,1.9c1.6-0.8,4.2-1.8,5.1-1c2,1.6,1,5-0.6,6.1c-0.7,0.5-2,1.2-2,1.2s3.9,1.6,8.1-1.1c4.1-2.6,16.1-10.6,15.5-24
		c-1-20-20.4-26.7-37.8-37.2C1052.6,636.2,1041,643,1038.4,651.1"/>
	<path class="st15" d="M1039.3,817.5l-5.3,1.7l-11.7-2c-1.4-0.6-9.8-2.6-7.6,0.2c1.6,2,6.5,5.2,6.4,5.4c-1.6,2.8-17.5,7.2-17.7,7.4
		c-2.3,3.6,8,1.5,9.8,1.2c0.5-0.1-6.8,3-6.4,3.4c0.5,0.3,1.4,1.4,3.4,1c2.4-0.5,6.3-1.8,6.8-1.5s-6.5,3.3-6.1,3.6
		c0.3,0.2,1.1,0.7,2.6,0.5c2.5-0.6,6-2,6.5-1.8c0.6,0.2-4.5,2-3.9,2.3c0.5,0.1,0.6,1,1,0.9c12.3-1.6,12.1-7.9,26.3-9.5
		C1051.3,829.3,1042,818.6,1039.3,817.5"/>
	
		<rect x="768" y="543.4" transform="matrix(0.2526 -0.9676 0.9676 0.2526 30.5355 1293.6268)" class="st13" width="169.2" height="167.2"/>
	<path class="st7" d="M864.2,578.3c26.2,6.9,41.9,33.6,35,59.8s-33.6,41.9-59.7,35c-26.2-6.9-41.9-33.6-35-59.7
		C811.3,587.1,838,571.4,864.2,578.3"/>
	<polygon class="st20" points="840.8,601.8 878,634.4 829.6,644.7 	"/>
	<path class="st12" d="M1259.8,375.2c10.9,0,19.7,8.9,19.7,19.7c0,10.9-8.9,19.7-19.7,19.7c-10.9,0-19.7-8.9-19.7-19.7
		C1239.9,384.1,1248.8,375.2,1259.8,375.2"/>
	<path class="st20" d="M1253.6,386.5c2.6-1.9,6.2-1.5,8.2,1.1c1.9,2.6,1.5,6.2-1.1,8.2c-2.6,1.9-6.2,1.5-8.2-1.1
		C1250.5,392.2,1251.1,388.5,1253.6,386.5 M1252.7,385.4c3.3-2.5,7.8-1.8,10.3,1.4c2.1,2.9,1.9,6.9-0.5,9.5l5.9,7.7
		c0.5,0.6,0.2,1.2-0.2,1.7l0,0c-0.5,0.5-1.4,0.3-1.7-0.2l-5.9-7.7c-3.2,1.6-7,0.8-9.3-2C1248.8,392.4,1249.5,387.9,1252.7,385.4z"/>
	<path class="st5" d="M873.2,126.2h121.8c25.2,0,45.6,20.4,45.6,45.6v30.3c0,25.2-20.4,45.6-45.6,45.6h-97.5l-24.4,22.3v-22.3
		c-25.2,0-45.6-20.4-45.6-45.6v-30.3C827.6,146.7,848,126.2,873.2,126.2"/>
	<path class="st20" d="M967.5,205.5V196l23.7-9.4l-23.7-9.3v-9.5l34,14.7v8.1L967.5,205.5z M925.7,212l12.3-51.1h7.1L932.7,212
		H925.7z M903.5,205.4l-34-14.8v-8.1l34-14.7v9.6l-23.7,9l23.7,9.4V205.4z"/>
	<rect x="765.7" y="972.5" class="st39" width="153.6" height="20.4"/>
	<path class="st37" d="M978.5,544.7h259.2c2.1,0,3.9,1.8,3.9,3.9l0,0c0,2.1-1.8,3.9-3.9,3.9H978.5c-2.1,0-3.9-1.8-3.9-3.9l0,0
		C974.7,546.5,976.4,544.7,978.5,544.7"/>
	<path class="st37" d="M978.5,568.7h259.2c2.1,0,3.9,1.8,3.9,3.9l0,0c0,2.1-1.8,3.9-3.9,3.9H978.5c-2.1,0-3.9-1.8-3.9-3.9l0,0
		C974.7,570.4,976.4,568.7,978.5,568.7"/>
	<path class="st27" d="M1302.3,1034.6c8.5,0,15.3,6.9,15.3,15.3s-6.9,15.3-15.3,15.3c-8.5,0-15.3-6.9-15.3-15.3
		C1286.9,1041.4,1293.7,1034.6,1302.3,1034.6 M1346.4,576.7c14.7-2.9,40.4,31.4,42.2,62.7c1.1,18.7,0.2,38.4-5.2,50.5
		c-9.7,21.5-30.9,44.1-40.8,53.9v261.3v35.8v8.7c0,22.7-18.6,41.3-41.3,41.3l0,0c-22.7,0-41.3-18.6-41.3-41.3v-8.7v-35.8V745.2
		c-9.7-9-33.4-32.6-43.5-54.6c-4.4-9.6-5.6-24.1-5.5-39c0.6-39.5,28.3-78.3,42.8-75.9v31.9v29.8v22.2l23.1,14.9l23.1,14.9l23.1-14.9
		l23.1-14.9v-22.2v-29.8v-30.8H1346.4z"/>
</g>
</svg>
